<svg width="61" height="60" viewBox="0 0 61 60" fill="none" xmlns="http://www.w3.org/2000/svg">
<path d="M30.1538 0C13.5815 0 0.153809 13.4277 0.153809 30C0.153809 46.5723 13.5815 60 30.1538 60C46.7261 60 60.1538 46.5723 60.1538 30C60.1538 13.4277 46.7261 0 30.1538 0ZM18.7699 43.1103C18.5858 43.4243 18.3223 43.6842 18.0058 43.8641C17.6894 44.0439 17.3312 44.1373 16.9672 44.1348C16.5962 44.138 16.2317 44.0379 15.9145 43.8455C15.6783 43.7087 15.4715 43.5265 15.3059 43.3095C15.1403 43.0925 15.0192 42.8449 14.9495 42.581C14.8798 42.3171 14.8629 42.042 14.8998 41.7715C14.9367 41.501 15.0267 41.2405 15.1645 41.0049L17.2123 37.6004C17.3158 37.4247 17.4634 37.2791 17.6406 37.1781C17.8177 37.0771 18.0182 37.0241 18.2221 37.0246H18.5248C20.0101 37.0246 21.0493 37.9179 21.352 38.783L18.7699 43.1103ZM36.1069 36.4138L22.6967 36.4286H13.7837C13.5033 36.4298 13.2256 36.374 12.9673 36.2646C12.7091 36.1552 12.4758 35.9945 12.2816 35.7923C12.0873 35.59 11.9362 35.3504 11.8373 35.088C11.7385 34.8255 11.694 34.5458 11.7065 34.2656C11.7493 33.1406 12.731 32.2888 13.8493 32.2888H20.3101L27.9694 19.2509L25.4891 15.0254C24.9306 14.0625 25.1784 12.7929 26.136 12.1875C26.372 12.0348 26.6365 11.9315 26.9136 11.8836C27.1906 11.8358 27.4745 11.8445 27.7481 11.9092C28.0217 11.9738 28.2794 12.0932 28.5057 12.26C28.732 12.4268 28.9222 12.6377 29.065 12.8799L30.3909 15.1446H30.4056L31.7328 12.8799C31.8757 12.6389 32.0656 12.4292 32.2913 12.2632C32.517 12.0972 32.7738 11.9784 33.0464 11.9138C33.319 11.8492 33.6018 11.8401 33.8779 11.8871C34.1541 11.9341 34.418 12.0363 34.6538 12.1875C35.606 12.7929 35.8511 14.0625 35.2886 15.0295L32.8083 19.2549L30.3976 23.3652L25.1623 32.2929V32.3076H32.8779C33.8449 32.3076 35.0569 32.8272 35.5471 33.6629L35.59 33.75C36.0226 34.4853 36.2676 34.9902 36.2676 35.7254C36.2606 35.9642 36.2074 36.1993 36.111 36.4179L36.1069 36.4138ZM46.5199 36.4286H42.8891V36.4433L45.5435 40.958C45.829 41.4335 45.9164 42.0021 45.7869 42.5414C45.6574 43.0806 45.3214 43.5475 44.8511 43.8415C44.5252 44.0403 44.1508 44.1454 43.769 44.1455C43.406 44.1454 43.0492 44.0513 42.7333 43.8725C42.4175 43.6937 42.1532 43.4362 41.9663 43.125L38.0435 36.4473L35.606 32.2955L32.4614 26.9196C32.0059 26.152 31.7584 25.279 31.7431 24.3865C31.7278 23.4941 31.9454 22.6131 32.3743 21.8304C32.9958 20.7335 33.4712 20.4455 33.4712 20.4455L40.4663 32.2768H46.481C47.606 32.2768 48.5717 33.142 48.6239 34.2522C48.6347 34.5345 48.5884 34.8161 48.4877 35.08C48.3869 35.3439 48.2339 35.5847 48.0378 35.788C47.8416 35.9913 47.6064 36.1528 47.3462 36.2629C47.0861 36.373 46.8064 36.4293 46.5239 36.4286H46.5199Z" fill="url(#paint0_linear_240_1274)"/>
<defs>
<linearGradient id="paint0_linear_240_1274" x1="30.1538" y1="0" x2="30.1538" y2="60" gradientUnits="userSpaceOnUse">
<stop stop-color="#15C9FB"/>
<stop offset="1" stop-color="#1977F3"/>
</linearGradient>
</defs>
</svg>
