<svg width="20" height="15" viewBox="0 0 20 15" fill="none" xmlns="http://www.w3.org/2000/svg">
<path d="M17.3771 9.375H7.58703L7.80561 10.3125H16.7699C17.2842 10.3125 17.6654 10.7315 17.5515 11.1715L17.3672 11.8827C17.9914 12.1485 18.4218 12.7098 18.4218 13.3594C18.4218 14.2735 17.5696 15.013 16.5241 14.9998C15.5281 14.9873 14.709 14.2782 14.6821 13.4047C14.6674 12.9275 14.8853 12.4951 15.2433 12.1875H8.24174C8.5883 12.4853 8.80361 12.9002 8.80361 13.3594C8.80361 14.2914 7.91766 15.0419 6.84422 14.9982C5.89108 14.9594 5.11592 14.2838 5.06582 13.4479C5.02715 12.8024 5.41435 12.2334 6.00263 11.9366L3.65662 1.875H1.32276C0.880087 1.875 0.52124 1.5602 0.52124 1.17187V0.703125C0.52124 0.314795 0.880087 0 1.32276 0H4.74688C5.12764 0 5.45583 0.23499 5.53214 0.562207L5.83825 1.875H18.9558C19.4702 1.875 19.8514 2.29397 19.7374 2.73395L18.1587 8.8277C18.0757 9.14783 17.7513 9.375 17.3771 9.375ZM13.9811 5.625H12.544V3.86719C12.544 3.67304 12.3646 3.51562 12.1433 3.51562H11.3418C11.1204 3.51562 10.941 3.67304 10.941 3.86719V5.625H9.50397C9.14692 5.625 8.96812 6.00369 9.2206 6.22515L11.4591 8.18889C11.6156 8.32617 11.8694 8.32617 12.0259 8.18889L14.2645 6.22515C14.5169 6.00369 14.3381 5.625 13.9811 5.625Z" fill="#023047"/>
</svg>
