<svg width="231" height="246" viewBox="0 0 231 246" fill="none" xmlns="http://www.w3.org/2000/svg">
<path d="M111.902 177.05C111.595 176.125 110.98 175.333 110.057 174.937C109.903 174.805 109.596 174.805 109.442 174.673C108.366 174.144 108.212 174.144 106.982 174.012C106.829 174.012 106.675 174.012 106.521 174.012C106.06 174.012 105.599 173.88 105.137 174.012C104.369 174.144 103.754 174.276 102.985 174.54C102.831 174.54 102.677 174.673 102.524 174.673C102.062 174.937 101.447 175.069 100.833 175.333C100.525 175.465 100.218 175.465 99.91 175.597C99.4488 175.729 99.1413 175.993 98.8338 176.258C98.6801 176.39 98.5263 176.654 98.3726 176.786C98.2188 176.918 98.2188 176.918 98.0651 177.05C97.6039 177.446 97.1426 177.975 96.9889 178.503C96.9889 178.635 96.8351 178.635 96.8351 178.767C96.5276 179.163 96.2202 179.692 96.3739 180.22C96.5276 180.749 96.9889 181.145 97.4501 181.277L97.6039 181.409C98.2188 181.937 98.9876 182.202 99.7563 182.334C100.064 182.466 100.218 182.598 100.525 182.598C100.986 182.73 101.447 182.73 101.909 182.73C102.216 182.73 102.524 182.73 102.831 182.73C103.446 182.73 104.061 182.73 104.676 182.73C105.291 182.73 106.06 182.73 106.675 182.598C107.444 182.466 108.059 182.202 108.52 181.805C108.674 181.673 108.827 181.673 108.981 181.541C109.288 181.277 109.596 181.145 110.057 180.881C110.365 180.616 110.672 180.352 110.98 179.956C111.133 179.824 111.287 179.692 111.441 179.428C112.056 179.031 112.21 177.843 111.902 177.05Z" fill="#FBBD08"/>
<path d="M83.6124 188.278C83.3049 187.749 82.8436 187.353 82.2287 187.221C82.0749 187.221 81.9212 187.089 81.7674 187.089C81.3062 186.957 80.8449 186.957 80.3837 187.089C80.23 187.089 80.23 187.089 80.0762 187.221C79.4612 187.353 78.8463 187.485 78.385 187.749C78.2313 187.881 78.0775 187.881 77.9238 188.013C77.6163 188.146 77.3088 188.41 77.0013 188.542L76.5401 188.806C76.0788 189.07 75.7714 189.466 75.7714 189.995C75.3101 190.523 75.7714 191.316 76.3863 191.448C76.5401 191.58 76.8476 191.712 77.1551 191.844C77.4626 191.976 77.6163 191.844 77.9238 191.844C78.0775 191.844 78.2313 191.844 78.5388 191.844C79.1537 191.844 79.7687 191.712 80.3837 191.712C80.8449 191.58 81.1524 191.58 81.4599 191.448C81.6137 191.316 81.7674 191.316 82.0749 191.184C82.2286 191.184 82.2287 191.184 82.3824 191.051C82.8436 190.787 83.1511 190.523 83.4586 190.127C83.6124 189.995 83.6124 189.863 83.7661 189.731C83.9198 189.334 83.9198 188.674 83.6124 188.278Z" fill="#FBBD08"/>
<path d="M91.4536 203.732C91.4536 203.336 91.2998 202.807 91.1461 202.411C90.6848 201.619 89.6086 200.958 88.5324 201.09C87.7637 201.09 86.995 201.222 86.0725 201.222C85.6112 201.222 85.15 201.222 84.8425 201.222C84.0738 201.222 83.6126 201.354 82.8438 201.486C82.2289 201.619 81.6139 201.751 80.9989 202.015C80.5377 202.147 80.2302 202.411 79.9227 202.543C79.4614 202.807 79.154 203.071 78.8465 203.071C78.3852 203.204 78.0777 203.336 77.6165 203.468C77.0015 203.732 76.3865 204.26 76.2328 204.921C76.2328 205.185 76.0791 205.449 76.0791 205.713C75.9253 205.845 75.9253 206.109 76.0791 206.109C76.2328 206.374 76.3865 206.638 76.5403 206.902C77.0015 207.562 77.7702 207.827 78.6927 207.959C79.154 207.959 79.6152 207.959 80.0764 208.091C80.8452 208.223 81.6139 208.355 82.2289 208.355C83.1513 208.355 84.2275 208.223 85.15 207.959C86.0725 207.827 86.995 207.298 87.7637 206.902C88.3787 206.638 88.9936 206.374 89.6086 205.977C90.6848 205.449 91.6073 204.657 91.4536 203.732Z" fill="#FBBD08"/>
<path d="M100.525 191.58C100.525 191.316 100.679 191.184 100.679 190.92C100.679 190.655 100.525 190.259 100.218 189.995C99.9101 189.731 99.6026 189.599 99.1413 189.599C98.9876 189.599 98.8338 189.599 98.6801 189.599C98.5264 189.599 98.2189 189.599 98.0651 189.599C97.9114 189.599 97.6039 189.731 97.4501 189.863C97.6039 189.863 97.7576 189.731 97.9114 189.731C97.9114 189.863 97.7576 189.863 97.6039 189.863C97.4501 189.863 97.4501 189.863 97.2964 189.863C96.9889 189.863 96.8352 189.995 96.5277 190.127L96.9889 189.995C96.6814 190.127 96.2202 190.127 95.9127 190.259C95.6052 190.391 95.2977 190.523 94.9902 190.655C94.8365 190.655 94.8365 190.655 94.6827 190.787C94.3752 190.92 94.0677 191.184 93.914 191.448C93.7603 191.448 93.6065 191.58 93.6065 191.712H93.4528C93.1453 191.712 92.9915 192.108 93.1453 192.24L93.299 192.372C93.299 192.505 93.4528 192.769 93.7603 192.901L93.914 193.033C94.2215 193.429 94.529 193.825 95.144 193.958C95.2977 193.958 95.4515 193.958 95.6052 194.09C95.9127 194.09 96.0664 194.222 96.3739 194.222C96.6814 194.222 96.8352 194.222 97.1426 194.09C97.6039 193.958 98.2189 193.825 98.6801 193.561C98.9876 193.429 99.2951 193.165 99.4488 193.033C99.6026 192.901 99.7563 192.769 99.9101 192.769C100.218 192.24 100.371 191.976 100.525 191.58Z" fill="#FBBD08"/>
<path d="M120.973 199.373C120.511 198.184 118.974 197.26 117.437 197.26C116.053 197.26 114.669 197.524 113.285 197.788C111.748 198.052 109.903 198.977 108.673 199.902C108.519 199.902 108.519 200.034 108.366 200.034C107.751 200.43 107.443 200.562 106.982 201.09C106.982 201.09 106.982 201.09 106.982 201.222C106.828 201.354 106.521 201.487 106.367 201.619C105.598 202.147 105.291 202.807 105.291 203.468C105.137 203.732 105.137 203.864 105.137 204.128C105.137 204.392 105.137 204.921 105.291 205.053C105.598 205.317 105.906 205.581 106.367 205.713C106.982 206.242 107.904 206.506 108.673 206.374H109.288C110.364 206.506 111.441 206.242 112.517 206.11C112.209 206.11 111.748 206.242 111.441 206.242C112.363 206.242 113.132 206.11 113.9 205.845C114.823 205.581 115.745 205.449 116.514 204.921C116.975 204.657 117.437 204.392 117.898 204.128C118.667 203.732 119.435 203.336 119.896 202.807C121.126 202.015 121.434 200.694 120.973 199.373Z" fill="#FBBD08"/>
<path d="M123.74 185.9C124.048 185.24 123.587 184.579 122.972 184.183C122.357 183.919 121.896 183.787 121.281 183.787C120.666 183.523 119.897 183.39 119.128 183.523C118.974 183.523 118.667 183.655 118.513 183.655C117.898 183.787 117.283 183.919 116.668 184.315C116.361 184.579 115.899 184.711 115.592 184.975C115.285 185.24 114.823 185.372 114.67 185.636C114.516 185.768 114.362 185.9 114.208 186.032C113.901 186.296 113.593 186.561 113.44 186.957V187.089C113.286 187.221 113.286 187.353 113.132 187.617C112.978 187.749 112.978 187.881 112.825 188.014C112.671 188.146 112.517 188.278 112.517 188.41C112.363 188.542 112.21 188.674 112.056 188.674C111.902 188.806 112.056 189.07 112.21 189.07C112.363 189.07 112.671 188.938 112.825 189.07C112.978 189.07 113.132 189.07 113.286 189.07C113.44 189.07 113.593 189.202 113.747 189.202C113.901 189.334 114.055 189.334 114.362 189.466C114.362 189.466 114.516 189.466 114.516 189.599C114.977 189.731 115.438 189.731 115.746 189.731C115.899 189.731 116.207 189.863 116.361 189.863C116.822 189.863 117.129 189.863 117.591 189.731L118.821 189.599C119.436 189.466 120.051 189.334 120.666 189.07C120.819 188.938 121.127 188.938 121.281 188.806C122.049 188.41 122.511 188.014 122.664 187.353C123.279 186.825 123.587 186.428 123.74 185.9Z" fill="#FBBD08"/>
<path d="M138.192 175.597C138.653 174.937 138.807 174.276 138.653 173.616C138.653 173.088 138.345 172.559 138.038 172.163C137.423 171.37 136.808 170.974 136.039 170.842C135.732 170.71 135.578 170.578 135.271 170.446C134.963 170.314 134.502 170.182 134.041 170.182C133.579 170.05 133.272 170.05 132.811 170.05C132.503 170.05 132.196 170.05 132.042 170.182C131.273 170.314 130.658 170.446 129.889 170.71C129.582 170.842 129.274 170.974 128.967 171.106C128.813 171.106 128.659 171.238 128.506 171.238C128.198 171.37 128.045 171.503 127.737 171.635C127.737 171.635 127.583 171.635 127.583 171.767C127.276 171.899 127.122 172.031 126.815 172.295C126.815 172.427 126.661 172.427 126.661 172.559C126.353 172.691 126.2 172.955 125.892 173.088C125.738 173.352 125.585 173.484 125.431 173.748C125.123 174.144 124.816 174.541 124.97 175.069C124.97 175.597 125.431 176.126 125.892 176.39C126.046 176.522 126.2 176.654 126.2 176.654C126.507 176.918 126.968 177.05 127.43 177.182C127.737 177.314 128.045 177.446 128.352 177.579C128.506 177.579 128.659 177.579 128.659 177.711C129.121 177.843 129.274 177.843 129.889 177.975C130.197 177.975 130.504 178.107 130.966 178.107C131.273 178.107 131.734 178.239 132.042 178.239C132.349 178.239 132.811 178.239 133.118 178.107C133.579 178.107 134.041 178.107 134.502 177.975C134.809 177.843 135.271 177.711 135.578 177.579C135.886 177.314 136.193 177.182 136.5 176.918L136.962 176.39C137.423 176.258 137.884 175.994 138.192 175.597Z" fill="#FBBD08"/>
<path d="M154.182 187.089C153.874 186.296 153.105 185.768 152.183 185.504C151.414 185.24 150.492 185.24 149.723 185.24C149.108 185.24 148.493 185.24 147.878 185.372C147.571 185.504 147.263 185.504 146.956 185.636C146.648 185.768 146.341 185.768 146.033 185.9C145.726 186.032 145.418 186.032 145.111 186.164C144.496 186.429 144.034 186.561 143.573 186.957C143.419 187.089 143.112 187.221 142.958 187.353C142.651 187.617 142.343 187.881 142.19 188.146C142.19 188.146 142.19 188.278 142.036 188.278C141.575 188.806 141.113 189.334 141.113 189.995C141.113 190.127 141.113 190.127 141.113 190.259C140.96 190.655 141.113 191.052 141.421 191.184C141.882 191.712 142.343 192.108 143.112 192.24C143.266 192.24 143.419 192.24 143.573 192.372C144.034 192.505 144.649 192.637 145.264 192.637C145.572 192.637 145.879 192.637 146.187 192.637H145.879C146.494 192.637 146.956 192.637 147.571 192.505C147.878 192.505 148.032 192.372 148.339 192.24C148.801 192.108 149.262 191.976 149.723 191.844C150.645 191.58 151.26 191.316 151.875 190.787C152.029 190.655 152.183 190.523 152.337 190.391C152.798 189.995 153.413 189.599 153.72 189.07C154.489 188.674 154.489 187.881 154.182 187.089Z" fill="#FBBD08"/>
<path d="M66.2396 203.6C66.2396 203.468 66.3933 203.336 66.3933 203.071C66.5471 202.675 66.5471 202.147 66.2396 201.751C65.9321 201.354 65.4708 201.09 65.0096 200.958C64.8559 200.958 64.7021 200.826 64.5484 200.826C63.7796 200.43 63.0109 200.298 62.2422 200.43C61.3197 200.694 60.2435 200.826 59.4748 201.222C59.1673 201.486 58.8598 201.618 58.5523 201.751C58.2448 201.883 57.7836 202.147 57.4761 202.411C57.3223 202.543 57.1686 202.675 57.1686 202.807C57.0149 202.939 56.8611 203.071 56.7074 203.071C56.3999 203.204 56.2461 203.468 56.0924 203.6C55.7849 203.864 55.6312 204.128 55.4774 204.392C55.4774 204.392 55.4774 204.392 55.3237 204.524C55.1699 204.656 55.1699 204.656 55.0162 204.789C55.0162 204.789 55.0162 204.921 54.8624 204.921L54.7087 205.053C54.4012 205.317 54.5549 205.845 55.0162 205.977C55.1699 205.977 55.1699 205.977 55.3237 205.977C55.3237 205.977 55.3237 205.977 55.4774 206.109C55.6312 206.242 55.7849 206.242 56.0924 206.374H56.2461C56.5536 206.506 56.7074 206.77 57.1686 206.77C57.3223 206.77 57.4761 206.77 57.6298 206.902C57.9373 207.034 58.2448 207.034 58.7061 207.034C58.8598 207.034 59.0135 207.034 59.1673 207.034C59.4748 207.034 59.7823 207.166 60.0898 207.166C60.551 207.166 61.0122 207.034 61.4735 207.034C62.0884 206.902 62.8572 206.77 63.4722 206.506C63.7796 206.374 64.0871 206.109 64.5484 205.977C64.8559 205.713 65.4708 205.581 65.6246 205.317C65.7783 204.789 66.0858 204.26 66.2396 203.6Z" fill="#FBBD08"/>
<path d="M74.5416 218.526C74.0804 217.337 72.6967 216.544 71.1592 216.544C70.5442 216.544 70.083 216.677 69.468 216.677C69.1605 216.677 68.853 216.809 68.5456 216.809C67.6231 216.677 66.8544 216.809 66.0856 217.205C65.3169 217.601 64.7019 217.865 64.2407 218.262C63.7795 218.658 63.472 219.054 63.1645 219.45C62.857 219.847 62.3957 220.243 62.242 220.771V220.903C61.4733 222.092 62.242 223.809 63.7795 224.073C63.7795 224.073 63.7795 224.073 63.9332 224.073C64.3944 224.338 65.0094 224.47 65.7781 224.47H65.9319C67.0081 224.602 68.0843 224.602 69.1605 224.338C70.083 224.073 71.0055 223.545 71.6205 222.885C71.7742 222.753 71.9279 222.753 72.0817 222.62C72.5429 222.356 73.1579 222.092 73.6191 221.696C74.5416 221.035 75.0028 219.715 74.5416 218.526Z" fill="#FBBD08"/>
<path d="M107.29 217.337C107.136 216.677 106.367 216.148 105.598 215.884C105.291 215.752 105.137 215.752 104.83 215.752C104.522 215.62 104.061 215.488 103.6 215.356C102.985 215.224 102.216 215.356 101.601 215.488C101.14 215.62 100.679 215.62 100.217 215.752C99.9099 215.752 99.6024 215.752 99.1411 215.884C98.6799 216.016 98.2187 216.148 97.7574 216.412C97.2962 216.545 96.835 216.809 96.3737 217.073C95.9125 217.337 95.4512 217.469 95.1438 217.733C94.8363 217.865 94.5288 217.997 94.2213 218.262C93.9138 218.394 93.76 218.658 93.6063 218.922C93.2988 219.186 93.1451 219.318 92.8376 219.583C92.6838 219.715 92.6838 219.979 92.5301 220.111C92.6838 219.979 92.6838 219.979 92.5301 220.111C92.3763 220.243 92.3763 220.375 92.3763 220.507C91.7614 220.903 92.2226 221.696 92.8376 221.828C92.9913 221.96 93.1451 221.96 93.2988 222.092C93.6063 222.356 93.9138 222.488 94.375 222.621C94.5288 222.621 94.6825 222.621 94.8363 222.753C95.605 223.017 96.6812 223.017 97.6037 222.885C98.6799 222.885 99.6024 222.753 100.679 222.621C101.755 222.488 102.524 221.96 103.6 221.696C103.907 221.564 104.368 221.432 104.676 221.3C105.445 221.036 106.213 220.507 106.521 219.715C106.675 219.583 106.675 219.583 106.828 219.45C107.136 218.79 107.597 217.997 107.29 217.337Z" fill="#FBBD08"/>
<path d="M106.982 237.679C107.135 237.414 107.289 237.15 107.443 236.886C107.597 236.754 107.597 236.622 107.75 236.622C108.212 236.094 108.519 235.565 108.826 234.905C109.134 234.244 108.827 233.452 108.212 232.923C107.597 232.395 106.828 232.263 105.905 232.395C105.752 232.395 105.444 232.395 105.29 232.527C105.137 232.527 104.522 232.791 104.368 232.791C104.368 232.791 104.368 232.791 104.522 232.659C104.983 232.527 104.522 232.659 104.214 232.791C103.907 232.791 103.599 232.791 103.292 232.791C102.523 232.791 101.908 233.055 101.293 233.32C101.139 233.32 100.832 233.452 100.678 233.452C100.217 233.584 99.6018 233.584 99.1406 233.848C98.8331 233.98 98.6793 234.112 98.3718 234.244C98.0643 234.376 97.6031 234.508 97.1419 234.641C96.8344 234.773 96.6806 234.773 96.3731 234.905C95.6044 235.037 95.1432 235.301 94.5282 235.565C94.3745 235.697 94.067 235.697 93.9132 235.829C93.2982 235.961 92.837 236.226 92.3758 236.49C91.7608 236.754 91.1458 237.018 90.9921 237.679C90.5308 238.075 90.5308 238.735 90.8383 239.132C90.9921 239.792 91.7608 240.32 92.3758 240.452C92.6833 240.584 92.9908 240.717 93.1445 240.849C93.452 240.981 93.6057 240.981 93.9132 241.113C94.682 241.245 95.4507 241.377 96.0657 241.377C95.7582 241.377 95.4507 241.245 95.1432 241.245C95.9119 241.377 96.6806 241.509 97.4494 241.509C98.2181 241.377 98.9868 241.377 99.9093 241.245C101.447 240.981 103.138 240.717 104.214 239.792C104.522 239.66 104.829 239.396 105.137 239.264C105.752 238.735 106.367 238.471 106.982 237.679Z" fill="#FBBD08"/>
<path d="M136.039 218.394C136.193 217.998 136.501 217.601 136.654 217.205C136.654 216.941 136.808 216.677 136.808 216.545C136.808 216.28 136.808 216.016 136.654 215.884C136.501 215.224 136.039 214.828 135.578 214.431C135.117 214.167 134.656 213.903 134.041 213.771C133.426 213.639 132.657 213.771 132.042 214.035C131.888 214.035 131.888 214.035 131.735 214.167C131.12 214.167 130.505 214.299 129.89 214.695C129.736 214.828 129.428 214.96 129.275 215.092C128.967 215.224 128.66 215.356 128.352 215.62C128.198 215.62 128.198 215.752 128.045 215.752C127.583 216.016 127.122 216.148 126.661 216.28H126.815C126.507 216.413 126.046 216.545 125.738 216.809C125.431 217.073 125.277 217.205 125.123 217.469C124.201 218.262 124.201 219.715 125.123 220.507L125.277 220.639C125.585 221.036 125.892 221.3 126.353 221.564C126.968 221.828 127.583 221.96 128.198 221.96C128.352 221.96 128.66 221.96 128.813 221.96C129.275 221.96 129.582 221.96 130.043 221.96C130.658 221.96 131.12 221.96 131.735 221.828C132.196 221.696 132.811 221.564 133.272 221.3C133.426 221.168 133.733 221.168 133.887 221.036C134.656 220.639 135.117 220.243 135.578 219.583C135.732 219.186 135.886 218.79 136.039 218.394Z" fill="#FBBD08"/>
<path d="M142.19 204.789C142.19 204.657 142.344 204.657 142.344 204.525C142.497 204.26 142.651 204.128 142.651 203.864C142.651 203.6 142.651 203.336 142.651 203.072C142.651 202.94 142.497 202.807 142.497 202.675C142.344 202.411 142.036 202.147 141.729 202.015C141.575 202.015 141.575 201.883 141.421 201.883C140.96 201.619 140.345 201.487 139.884 201.487C139.73 201.487 139.73 201.355 139.422 201.355C139.115 201.355 138.807 201.222 138.5 201.222C138.039 201.222 137.577 201.222 137.27 201.487C136.962 201.619 136.962 201.619 136.655 201.751C136.348 201.883 136.194 202.015 135.886 202.147C135.425 202.411 134.964 202.675 134.81 203.072C134.656 203.072 134.503 203.336 134.503 203.468C134.195 203.864 134.041 204.393 134.195 204.789C134.349 205.317 134.81 205.713 135.271 205.845C135.425 205.978 135.579 206.11 135.886 206.242C136.348 206.506 136.809 206.638 137.424 206.638H138.346C139.269 206.638 140.191 206.374 140.96 205.845C141.114 205.713 141.114 205.713 141.267 205.581C141.575 205.449 141.729 205.317 141.882 205.185C141.882 205.185 142.036 205.053 142.19 204.789Z" fill="#FBBD08"/>
<path d="M171.247 207.034C171.401 206.638 171.555 206.374 171.555 205.977C171.555 205.449 171.401 205.053 171.094 204.524C170.94 204.26 170.786 204.128 170.632 203.864C170.325 203.6 170.017 203.336 169.556 203.204C169.249 203.071 168.941 203.071 168.634 203.071C168.172 202.939 167.711 202.939 167.25 203.071C167.096 203.071 166.942 203.071 166.789 203.071C166.327 203.071 166.02 203.204 165.559 203.468C165.251 203.6 164.944 203.732 164.483 203.864C164.175 203.996 163.868 204.128 163.56 204.26C163.406 204.392 163.253 204.392 163.099 204.524C162.638 204.789 162.176 205.053 162.023 205.449L161.869 205.581C161.561 205.845 161.254 206.109 161.254 206.506C161.1 206.77 161.1 207.298 161.254 207.562C161.561 207.959 161.715 208.355 162.176 208.487C162.484 208.619 162.638 208.619 162.945 208.751C162.945 208.751 162.945 208.751 163.099 208.751C163.56 209.015 164.021 209.015 164.483 209.148C164.636 209.148 164.79 209.148 165.097 209.148C165.405 209.148 165.866 209.148 166.174 209.148C166.481 209.148 166.789 209.148 167.25 209.015C167.711 209.015 168.172 209.015 168.634 208.883C168.787 208.883 168.941 208.751 169.249 208.751C169.556 208.619 169.864 208.619 170.017 208.487C170.479 208.355 170.786 208.091 171.094 207.695C170.94 207.562 171.094 207.298 171.247 207.034Z" fill="#FBBD08"/>
<path d="M163.407 224.734C163.407 224.866 163.407 224.734 163.407 224.734C163.714 223.941 163.253 223.149 162.638 222.752C162.638 222.752 162.638 222.752 162.792 222.752C162.792 222.752 162.792 222.752 162.638 222.752C162.484 222.752 162.484 222.752 162.638 222.752C162.331 222.488 161.869 222.224 161.408 222.092C160.947 221.96 160.332 221.96 159.871 221.96C159.563 221.96 159.256 221.96 158.948 222.092C158.179 222.224 157.564 222.356 156.796 222.62C155.412 223.149 154.028 223.545 152.798 224.205C152.183 224.47 151.568 224.734 150.953 224.998C150.646 225.13 150.492 225.262 150.185 225.526C149.877 225.658 149.416 225.923 149.108 226.055C148.493 226.319 148.186 226.715 147.879 227.243C148.032 226.979 148.186 226.847 147.879 227.111C147.725 227.243 147.571 227.376 147.417 227.508C146.956 228.036 146.341 228.564 145.572 228.961C145.419 228.961 145.419 229.225 145.572 229.225C146.034 229.225 146.495 229.093 146.956 229.225C147.264 229.225 147.571 229.225 147.879 229.225C148.032 229.357 148.34 229.357 148.647 229.489C148.801 229.489 148.955 229.489 148.955 229.489C149.262 229.621 149.57 229.621 149.877 229.753C150.185 229.753 150.646 229.621 150.953 229.621C151.261 229.621 151.568 229.489 151.876 229.489C152.03 229.489 152.337 229.489 152.337 229.489C153.721 229.489 155.105 229.093 156.334 228.829C156.949 228.696 157.564 228.564 158.179 228.432C158.948 228.3 159.871 228.168 160.486 227.772C160.947 227.508 161.562 227.243 162.023 226.979C162.484 226.715 162.946 226.451 163.253 225.923C163.253 225.394 163.253 225.13 163.407 224.734Z" fill="#FBBD08"/>
<path d="M129.736 241.509C129.89 241.377 129.89 241.113 130.044 240.981C130.505 240.056 129.429 238.867 128.352 238.999C128.045 238.999 127.584 238.999 127.122 239.131C126.815 239.131 126.507 239.264 126.354 239.396C125.893 239.528 125.431 239.66 124.97 239.66C124.509 239.66 124.048 239.66 123.586 239.792C122.971 239.924 122.356 240.188 121.741 240.452C121.741 240.452 121.741 240.452 121.895 240.452C121.741 240.584 121.434 240.584 121.28 240.717C121.126 240.849 120.819 240.981 120.665 240.981C120.511 241.113 120.204 241.113 120.05 241.245C119.589 241.509 119.128 241.773 118.82 242.169C118.513 242.302 118.205 242.434 118.052 242.698C117.59 243.094 117.437 243.49 117.437 244.019C117.437 244.547 117.744 244.943 118.359 245.207C118.82 245.472 119.435 245.472 119.896 245.604C120.511 245.868 121.126 246 121.741 246C122.356 246 122.971 245.868 123.586 245.868C124.201 245.736 124.816 245.604 125.278 245.34C125.893 245.075 126.507 244.943 126.969 244.547C127.43 244.151 128.045 243.622 128.506 243.226C128.814 242.962 128.967 242.83 129.275 242.566C129.429 242.037 129.582 241.773 129.736 241.509Z" fill="#FBBD08"/>
<ellipse cx="113.555" cy="123.476" rx="77" ry="83.4001" fill="#FBBD08"/>
<path d="M54.6077 130.022V129.941L87.0887 88.9554H87.1697V124.028H94.0547V130.022H87.1697V142.901H79.3127V130.022H54.6077ZM79.7987 106.694L66.1097 124.433L64.8947 124.028H79.3127V105.236L79.7987 106.694ZM112.697 143.549C109.835 143.549 107.081 143.036 104.435 142.01C101.843 140.984 99.7373 139.661 98.1173 138.041L102.329 131.966C103.409 133.208 104.84 134.207 106.622 134.963C108.458 135.719 110.267 136.097 112.049 136.097C114.047 136.097 115.802 135.665 117.314 134.801C118.88 133.883 120.095 132.668 120.959 131.156C121.823 129.59 122.255 127.808 122.255 125.81C122.255 123.65 121.85 121.733 121.04 120.059C120.284 118.385 119.123 117.089 117.557 116.171C116.045 115.199 114.128 114.713 111.806 114.713C109.916 114.713 108.161 114.983 106.541 115.523C104.921 116.009 103.247 116.765 101.519 117.791H101.438V89.6034H126.953V97.1364H108.242V110.744L107.189 109.124C108.107 108.8 109.133 108.557 110.267 108.395C111.455 108.179 112.589 108.071 113.669 108.071C117.287 108.071 120.311 108.881 122.741 110.501C125.225 112.067 127.088 114.173 128.33 116.819C129.626 119.465 130.274 122.381 130.274 125.567C130.274 128.915 129.518 131.966 128.006 134.72C126.494 137.42 124.415 139.58 121.769 141.2C119.123 142.766 116.099 143.549 112.697 143.549ZM149.588 109.205H156.473V120.707H167.732V127.268H156.473V138.77H149.588V127.268H138.248V120.707H149.588V109.205Z" fill="#062D3E"/>
<path d="M54.2881 196.532L49.4677 190.314C46.0711 185.932 41.4332 185.736 36.6687 190.068C31.9042 194.401 31.3284 199.49 34.7078 203.85L39.4768 210.002L54.2881 196.532ZM39.5276 205.466L36.903 202.08C34.1583 198.539 35.8721 195.283 38.7101 192.702C41.5481 190.121 44.7851 188.875 47.5298 192.416L50.1545 195.802L39.5276 205.466Z" fill="white"/>
<path d="M19.7084 172.449C19.3822 171.645 18.5714 171.133 17.6611 171.566C16.7509 171.999 16.5756 172.98 16.9017 173.784C17.2069 174.537 18.0029 175.087 18.9132 174.654C19.8234 174.221 20.0135 173.202 19.7084 172.449ZM22.43 172.764L35.3507 166.618L34.2459 163.893L21.3253 170.04L22.43 172.764Z" fill="white"/>
<path d="M11.4111 147.515L9.06703 148.066C9.07359 148.668 9.11841 149.319 9.2615 150.033C9.72382 152.339 11.0127 153.358 13.9564 152.666L15.7281 152.249L16.1299 154.253L18.4739 153.702L18.0721 151.698L29.6561 148.973L29.0727 146.063L17.4887 148.788L16.9714 146.207L14.6273 146.758L15.1447 149.339L13.6183 149.698C12.0375 150.07 11.7036 149.401 11.4111 147.515Z" fill="white"/>
<path d="M9.39976 122.968L6.99177 122.963C6.87892 123.551 6.79399 124.195 6.79293 124.923C6.78953 127.275 7.85167 128.565 10.8757 128.57L12.6957 128.573L12.6927 130.617L15.1007 130.621L15.1037 128.577L27.0036 128.597L27.0079 125.629L15.108 125.609L15.1118 122.977L12.7038 122.973L12.7 125.605L11.132 125.602C9.50796 125.6 9.31301 124.871 9.39976 122.968Z" fill="white"/>
<path d="M27.303 102.115C26.6564 104.637 24.3703 105.557 22.0643 104.863L24.7895 94.2308C19.9093 92.7634 16.2626 94.0332 15.1155 98.5085C14.0449 102.685 16.1592 106.155 20.6103 107.493C24.9006 108.783 28.5245 107.039 29.6298 102.727C30.5406 99.1736 29.0847 96.5156 26.6645 95.0283L25.9345 97.8763C26.7032 98.3703 27.9078 99.755 27.303 102.115ZM17.3411 99.1777C17.932 96.8722 19.8497 95.8129 21.968 96.4499L19.9728 104.234C17.8545 103.597 16.7502 101.483 17.3411 99.1777Z" fill="white"/>
<path d="M27.831 65.5936C26.9105 67.2282 27.3613 68.932 28.4855 70.5785L28.4581 70.6273L26.2153 69.1456L24.7727 71.7073L36.7106 79.5943L38.1532 77.0326L32.0558 73.0042C29.5093 71.3219 29.0336 68.2961 30.8185 66.0944L30.846 66.0456L28.5331 64.5176C28.2803 64.8527 28.0784 65.1544 27.831 65.5936Z" fill="white"/>
<path d="M51.1146 54.4486C49.2745 56.2911 46.8956 55.8686 45.3324 54.037L53.0886 46.2709C49.7804 42.3947 46.0873 41.5502 42.8225 44.8192C39.7754 47.8701 39.7466 52.0068 42.764 55.5422C45.6724 58.9498 49.5912 59.3708 52.7372 56.2208C55.3292 53.6254 55.4879 50.5437 54.2391 47.9628L52.1616 50.043C52.547 50.8815 52.836 52.725 51.1146 54.4486ZM44.3312 46.5868C46.0131 44.9029 48.1572 45.0074 49.5932 46.6899L43.9146 52.3758C42.4785 50.6933 42.6494 48.2708 44.3312 46.5868Z" fill="white"/>
<path d="M71.4056 23.0704C69.1909 24.1505 68.287 25.8352 68.0375 27.2008L67.9871 27.2253L67.2777 25.5189L64.6352 26.8076L70.1276 40.0195L72.7701 38.7307L69.4274 30.6899C68.6105 28.7249 69.3925 26.8198 71.431 25.8256C73.243 24.9419 74.4458 25.7236 75.1874 27.5076L78.6591 35.8587L81.3267 34.5577L77.5326 25.4309C76.2751 22.4059 73.7964 21.9044 71.4056 23.0704Z" fill="white"/>
<path d="M102.134 16.0987L101.793 13.715L99.1422 14.1602L98.5033 9.69773L95.5763 10.1893L96.2152 14.6518L94.1718 14.9951L94.5131 17.3787L96.5565 17.0355L97.6914 24.9627C98.12 27.9562 99.541 28.7961 101.86 28.4065C102.634 28.2766 103.257 28.0868 103.817 27.8508L103.476 25.4671C101.614 25.8934 100.813 25.8292 100.583 24.2216L99.4835 16.5439L102.134 16.0987Z" fill="white"/>
<path d="M143.686 22.5965L146.496 23.4615C146.972 20.2128 145.248 17.194 141.689 16.0983C137.621 14.8461 134.19 17.0097 133.053 21.3429C131.916 25.6762 133.784 29.4709 137.878 30.7314C141.437 31.8271 144.491 30.2205 145.543 27.0907L142.733 26.2256C142.221 27.7364 140.898 29.1437 138.489 28.4023C135.706 27.5455 135.181 24.8079 135.863 22.208C136.545 19.608 138.348 17.5872 141.104 18.4357C143.513 19.1771 143.948 21.1552 143.686 22.5965Z" fill="white"/>
<path d="M170.432 34.8787C169.717 36.0495 168.479 35.5054 166.462 34.5751C163.184 33.0844 160.784 32.5668 159.149 35.2428C157.894 37.2976 158.474 39.7752 160.841 41.4717C162.639 42.7604 164.411 42.9658 165.796 42.4126L165.842 42.4452C165.34 43.803 165.639 44.705 166.914 45.6185C167.369 45.9447 167.785 46.1743 168.462 46.3507L169.192 45.1561C168.201 44.5828 168.296 43.9984 168.822 43.1382L172.369 37.3322C174.355 34.0827 173.071 31.6851 170.499 29.8418C166.995 27.3297 164.437 28.1418 162.892 30.4017L165.214 32.0656C166.291 30.5702 167.376 30.4547 169.288 31.8249C170.881 32.9668 170.972 33.9947 170.432 34.8787ZM162.576 39.8637C161.279 38.9339 161.021 37.856 161.707 36.733C162.466 35.4905 163.696 35.5131 165.953 36.4783C167.215 37.0387 168.323 37.4208 168.885 37.4114L167.761 39.2511C166.549 41.2343 164.556 41.2829 162.576 39.8637Z" fill="white"/>
<path d="M192.096 54.2622L193.834 52.5956L192.133 50.5144L195.387 47.3943L193.508 45.0963L190.255 48.2164L188.943 46.6121L187.205 48.2787L188.516 49.883L182.736 55.4255C180.554 57.5185 180.601 59.2521 182.089 61.0732C182.586 61.6802 183.054 62.1207 183.527 62.4791L185.265 60.8124C183.979 59.4158 183.624 58.6731 184.797 57.5491L190.395 52.181L192.096 54.2622Z" fill="white"/>
<path d="M195.398 78.6899C194.325 76.3172 195.447 73.9824 197.574 72.854L202.096 82.8551C206.598 80.4671 208.508 76.8916 206.605 72.6819C204.828 68.7529 201.137 67.6427 197.03 69.8208C193.073 71.9202 191.471 75.8383 193.305 79.8948C194.816 83.2371 197.524 84.2051 200.223 83.5957L199.012 80.9168C198.141 81.094 196.401 80.9095 195.398 78.6899ZM204.552 73.771C205.532 75.9396 204.768 78.1162 202.814 79.1528L199.503 71.8305C201.457 70.794 203.571 71.6024 204.552 73.771Z" fill="white"/>
<path d="M217.069 110.371L215.406 110.61L215.399 110.555C216.305 109.661 217.197 108.203 216.921 105.952C216.484 102.394 213.717 100.078 209.227 100.725C204.765 101.369 202.627 104.392 203.064 107.949C203.341 110.2 204.554 111.355 205.7 111.953L205.706 112.009L203.988 112.257C201.439 112.624 200.176 111.533 199.876 109.088C199.592 106.781 200.412 105.645 201.625 105.187L201.263 102.241C198.917 102.891 197.059 105.449 197.562 109.535C198.057 113.564 200.162 115.778 204.236 115.191L217.428 113.289L217.069 110.371ZM205.516 108.162C205.201 105.605 206.981 104.019 209.586 103.643C212.219 103.264 214.291 104.294 214.606 106.851C214.896 109.213 213.518 110.854 210.525 111.286C207.532 111.717 205.806 110.524 205.516 108.162Z" fill="white"/>
<path d="M202.294 139.702C203.081 135.291 206.6 133.254 210.957 134.165C215.315 135.076 217.881 138.386 217.094 142.797C216.308 147.207 212.789 149.245 208.431 148.334C204.074 147.422 201.508 144.112 202.294 139.702ZM204.651 140.195C204.16 142.951 206.07 144.837 208.947 145.439C211.853 146.047 214.246 145.06 214.737 142.304C215.229 139.547 213.346 137.667 210.441 137.059C207.564 136.457 205.143 137.438 204.651 140.195Z" fill="white"/>
<path d="M206.869 176.498C207.661 174.797 207.077 173.14 205.825 171.595L205.848 171.544L208.207 172.834L209.449 170.17L196.896 163.303L195.654 165.968L202.065 169.475C204.743 170.94 205.455 173.909 203.842 176.244L203.819 176.294L206.251 177.625C206.477 177.271 206.656 176.954 206.869 176.498Z" fill="white"/>
<path d="M189.2 202.939L191.214 200.536L185.761 190.05L185.797 190.007L196.177 194.612L198.209 192.186L185.716 187.148C184.416 186.614 183.869 185.529 183.751 184.669C183.606 183.626 184.139 182.859 185.05 182.032L185.212 181.839L183.614 180.269C183.155 180.6 182.606 181.039 182.066 181.682C180.304 183.786 180.969 185.731 182.025 187.904L189.2 202.939Z" fill="white"/>
</svg>
