<svg width="72" height="144" viewBox="0 0 72 144" fill="none" xmlns="http://www.w3.org/2000/svg">
<path d="M-22.5003 101.077C-24.231 105.577 -22.8464 108 -19.731 110.423C-15.9233 113.885 -12.4618 116.308 -6.23103 115.269C1.38435 114.231 8.65359 123.577 4.84589 129.808C2.07666 134.308 -2.07719 138.808 -6.23103 142.269C-12.1157 147.115 -22.1541 141.231 -21.808 133.269C-21.808 127.385 -24.231 124.269 -28.3849 120.808C-35.6541 114.577 -42.9233 108.346 -49.8464 101.769C-51.9233 99.6923 -54.0003 99 -57.1157 99.6923C-63.6926 100.731 -68.1926 98.6538 -70.6157 93.4615C-73.0387 88.6153 -71.308 83.423 -66.808 81C-65.7695 80.3076 -64.3849 79.6153 -64.0387 78.5769C-63.0003 74.0769 -60.231 71.6538 -55.3849 71.6538C-50.8849 71.6538 -46.0387 74.7692 -44.6541 78.923C-44.308 79.9615 -43.9618 81 -43.9618 82.0384C-45.6926 90 -39.4618 93.1153 -34.6157 96.923C-33.231 97.9615 -30.4618 97.2692 -27.3464 97.2692C-31.1541 93.4615 -31.8464 90.6923 -29.0772 87.2307C-28.3849 86.5384 -29.4233 84.1153 -30.4618 82.7307C-36.6926 74.423 -43.2695 66.1153 -49.1541 57.8077C-51.231 54.6923 -52.6157 50.8846 -54.0003 47.0769C-57.4618 37.7307 -56.7695 29.423 -49.1541 22.1538C-44.308 17.6538 -40.1541 12.8076 -36.3464 7.61534C-31.1541 0.692264 -24.5772 -1.0385 -16.6157 -4.31538e-05C-5.88489 1.38457 4.15358 5.88457 13.1536 11.423C34.6151 24.923 52.9613 41.5384 65.769 63.6923C67.1536 66.4615 68.5382 69.2307 69.5767 72.3461C73.3844 82.3846 73.3844 91.3846 64.7305 99.3461C59.8844 103.846 55.7305 109.385 51.2305 114.577C47.4228 119.423 42.2305 121.154 36.692 120.808C24.2305 120.462 13.4997 115.269 3.11512 109.038C-1.03873 106.615 -5.19257 103.5 -9.34642 101.077C-10.3849 100.385 -12.808 100.038 -13.5003 100.731C-16.2695 104.192 -19.0387 103.846 -22.5003 101.077ZM33.9228 68.5384C34.269 68.1923 34.6151 68.1923 34.9613 67.8461C35.6536 68.5384 36.692 69.2307 37.3844 70.2692C42.2305 78.5769 47.0767 87.2307 51.9228 95.5384C52.6151 96.5769 53.3074 97.9615 54.3459 98.3076C62.3074 100.385 70.269 94.1538 69.9228 85.8461C69.5767 81 68.5382 75.8076 66.4613 70.9615C60.5767 56.423 50.5382 44.6538 39.1151 33.923C24.9228 20.7692 9.34589 9.69227 -9.69257 4.1538C-14.1926 2.76919 -19.3849 2.42303 -24.231 2.76919C-32.5387 3.4615 -37.731 11.423 -34.9618 19.3846C-34.6157 20.423 -33.231 21.4615 -32.1926 21.8077C-6.23104 28.0384 13.8459 44.3076 31.4997 63.3461C32.192 64.0384 32.192 64.7307 32.8844 65.7692C13.4997 46.7307 -6.57719 29.7692 -33.9233 23.1923C-27.3464 52.6153 22.8459 95.5384 50.192 96.923C47.4228 86.1923 40.1536 77.5384 33.9228 68.5384ZM-38.0772 12.8076C-41.8849 16.9615 -45.0003 20.7692 -48.4618 24.2307C-54.0003 29.7692 -55.0387 36.3461 -52.6157 43.6153C-50.8849 48.4615 -49.1541 53.3077 -46.731 57.4615C-37.0387 74.7692 -23.1926 88.2692 -7.61565 100.038C3.11512 108 14.5382 114.577 27.692 117.692C42.2305 121.5 54.692 114.577 59.5382 101.423C51.9228 99.6923 43.6151 98.3077 35.9997 95.5384C19.0382 89.3077 4.49973 78.5769 -8.30796 65.7692C-22.5003 51.2307 -36.0003 35.6538 -38.0772 12.8076ZM-62.308 82.0384C-68.1926 83.423 -70.2695 85.1538 -69.9234 89.3076C-69.5772 93.4615 -66.4618 97.2692 -61.9618 97.9615C-60.5772 98.3076 -59.1926 98.3076 -57.808 97.9615C-54.0003 96.923 -50.8849 98.3077 -47.7695 101.077C-40.5003 107.654 -33.5772 113.885 -26.308 120.115C-22.1541 123.577 -19.731 127.038 -20.0772 132.577C-20.4233 137.769 -15.9233 141.577 -11.0772 141.923C-6.92334 141.923 -4.84642 139.5 -4.15411 133.269C-0.000267029 132.577 3.46127 131.192 3.46127 126.346C3.46127 122.192 -0.000267029 118.038 -4.15411 117.692C-5.53873 117.346 -7.2695 117.346 -8.65411 117.692C-12.4618 118.731 -15.231 117.346 -18.0003 114.923C-24.5772 108.692 -31.5003 102.808 -38.4233 96.923C-43.2695 93.1153 -47.0772 89.3077 -46.3849 82.0384C-46.0387 77.5384 -50.8849 73.7307 -55.3849 73.7307C-59.8849 73.7307 -61.6157 76.1538 -62.308 82.0384ZM-25.9618 87.5769C-29.7695 91.0384 -29.4233 93.1153 -25.6157 95.1923C-24.231 95.8846 -22.8464 96.923 -22.1541 98.3076C-19.3849 102.115 -16.9618 102.115 -14.8849 97.6153C-18.3464 94.5 -21.808 91.0384 -25.9618 87.5769Z" fill="white"/>
</svg>
