<svg width="27" height="25" viewBox="0 0 27 25" fill="none" xmlns="http://www.w3.org/2000/svg">
<path fill-rule="evenodd" clip-rule="evenodd" d="M8.22084 0.127079C9.5801 0.0674501 10.0135 0.0541992 13.476 0.0541992C16.9384 0.0541992 17.3718 0.0685544 18.7299 0.127079C20.088 0.185604 21.0151 0.392098 21.8262 0.691349C22.6756 0.997225 23.4462 1.47536 24.0835 2.09374C24.7325 2.69997 25.2331 3.43319 25.5529 4.24371C25.8681 5.01668 26.0836 5.90007 26.1462 7.19204C26.2088 8.48953 26.2227 8.90252 26.2227 12.2009C26.2227 15.5004 26.2076 15.9134 26.1462 17.2087C26.0848 18.5006 25.8681 19.384 25.5529 20.157C25.233 20.9676 24.7316 21.702 24.0835 22.3092C23.4462 22.9275 22.6756 23.4046 21.8262 23.7093C21.0151 24.0097 20.088 24.2151 18.7322 24.2747C17.3718 24.3343 16.9384 24.3476 13.476 24.3476C10.0135 24.3476 9.5801 24.3332 8.22084 24.2747C6.86505 24.2162 5.93802 24.0097 5.12686 23.7093C4.27622 23.4045 3.5055 22.9267 2.86838 22.3092C2.21989 21.7026 1.71806 20.9685 1.39787 20.1581C1.08384 19.3851 0.868303 18.5017 0.805728 17.2098C0.743154 15.9123 0.729248 15.4993 0.729248 12.2009C0.729248 8.90141 0.744312 8.48843 0.805728 7.19425C0.867144 5.90007 1.08384 5.01668 1.39787 4.24371C1.71853 3.43328 2.22075 2.69921 2.86954 2.09264C3.50576 1.47481 4.2757 0.99661 5.1257 0.691349C5.93686 0.392098 6.86389 0.186709 8.21968 0.127079H8.22084ZM18.6268 2.31349C17.2826 2.25496 16.8793 2.24281 13.476 2.24281C10.0726 2.24281 9.66932 2.25496 8.32513 2.31349C7.08174 2.36759 6.40733 2.56525 5.95772 2.73199C5.36326 2.95284 4.93798 3.21455 4.49184 3.63968C4.06894 4.03175 3.74347 4.50904 3.53932 5.03655C3.36434 5.465 3.15692 6.10767 3.10014 7.29253C3.03872 8.57345 3.02597 8.95773 3.02597 12.2009C3.02597 15.4441 3.03872 15.8283 3.10014 17.1093C3.15692 18.2941 3.36434 18.9368 3.53932 19.3652C3.74326 19.892 4.06889 20.3701 4.49184 20.7621C4.90322 21.1652 5.40497 21.4755 5.95772 21.6698C6.40733 21.8365 7.08174 22.0342 8.32513 22.0883C9.66932 22.1468 10.0714 22.159 13.476 22.159C16.8805 22.159 17.2826 22.1468 18.6268 22.0883C19.8702 22.0342 20.5446 21.8365 20.9942 21.6698C21.5887 21.449 22.0139 21.1872 22.4601 20.7621C22.883 20.3701 23.2086 19.892 23.4126 19.3652C23.5876 18.9368 23.795 18.2941 23.8518 17.1093C23.9132 15.8283 23.9259 15.4441 23.9259 12.2009C23.9259 8.95773 23.9132 8.57345 23.8518 7.29253C23.795 6.10767 23.5876 5.465 23.4126 5.03655C23.1808 4.47008 22.9062 4.06482 22.4601 3.63968C22.0486 3.23671 21.5478 2.92657 20.9942 2.73199C20.5446 2.56525 19.8702 2.36759 18.6268 2.31349V2.31349ZM11.8479 15.9454C12.7571 16.3061 13.7696 16.3548 14.7123 16.0831C15.655 15.8115 16.4696 15.2364 17.0168 14.456C17.564 13.6757 17.8099 12.7385 17.7126 11.8046C17.6152 10.8707 17.1806 9.9979 16.483 9.33538C16.0383 8.91188 15.5006 8.5876 14.9086 8.38589C14.3166 8.18419 13.685 8.11007 13.0594 8.16887C12.4337 8.22768 11.8295 8.41795 11.2902 8.72598C10.751 9.03402 10.2901 9.45215 9.94083 9.95028C9.59153 10.4484 9.36246 11.0142 9.27014 11.6068C9.17782 12.1994 9.22452 12.8041 9.4069 13.3775C9.58928 13.9508 9.9028 14.4785 10.3249 14.9226C10.747 15.3666 11.2671 15.7159 11.8479 15.9454ZM8.84311 7.78613C9.4515 7.20637 10.1738 6.74648 10.9687 6.43272C11.7636 6.11896 12.6156 5.95747 13.476 5.95747C14.3364 5.95747 15.1883 6.11896 15.9832 6.43272C16.7781 6.74648 17.5004 7.20637 18.1088 7.78613C18.7172 8.36588 19.1998 9.05415 19.5291 9.81164C19.8583 10.5691 20.0278 11.381 20.0278 12.2009C20.0278 13.0208 19.8583 13.8327 19.5291 14.5902C19.1998 15.3476 18.7172 16.0359 18.1088 16.6157C16.8801 17.7865 15.2136 18.4443 13.476 18.4443C11.7383 18.4443 10.0718 17.7865 8.84311 16.6157C7.6144 15.4448 6.92412 13.8568 6.92412 12.2009C6.92412 10.545 7.6144 8.957 8.84311 7.78613V7.78613ZM21.4809 6.88727C21.6317 6.75174 21.7523 6.58877 21.8358 6.408C21.9193 6.22723 21.9639 6.03233 21.9669 5.83485C21.9699 5.63737 21.9313 5.44131 21.8534 5.2583C21.7755 5.07528 21.6598 4.90903 21.5133 4.76937C21.3667 4.62971 21.1923 4.5195 21.0002 4.44525C20.8082 4.371 20.6024 4.33423 20.3952 4.33711C20.1879 4.33999 19.9834 4.38246 19.7937 4.46201C19.604 4.54156 19.433 4.65658 19.2908 4.80025C19.0142 5.07965 18.8627 5.45078 18.8686 5.83485C18.8745 6.21891 19.0372 6.58568 19.3222 6.85728C19.6073 7.12889 19.9921 7.28395 20.3952 7.28955C20.7982 7.29514 21.1877 7.15084 21.4809 6.88727V6.88727Z" fill="white"/>
</svg>
