<svg width="57" height="60" viewBox="0 0 57 60" fill="none" xmlns="http://www.w3.org/2000/svg">
<path d="M0.418457 3.68212V56.3153C0.41881 56.4295 0.452868 56.5411 0.516361 56.636C0.579855 56.7309 0.669957 56.805 0.775369 56.8489C0.880781 56.8928 0.996811 56.9046 1.10891 56.8828C1.22101 56.861 1.32418 56.8067 1.4055 56.7265L28.8109 30.0001L1.4055 3.27096C1.32418 3.19079 1.22101 3.13641 1.10891 3.11464C0.996811 3.09287 0.880781 3.10468 0.775369 3.14859C0.669957 3.1925 0.579855 3.26655 0.516361 3.36147C0.452868 3.45638 0.41881 3.56793 0.418457 3.68212Z" fill="#3BCCFF"/>
<path d="M40.3019 19.018L5.939 0.0861125L5.91757 0.074059C5.32562 -0.247365 4.76312 0.553517 5.24794 1.01958L32.1846 26.7764L40.3019 19.018Z" fill="#48FF48"/>
<path d="M5.25048 58.9802C4.76299 59.4462 5.32548 60.2471 5.92012 59.9257L5.94155 59.9136L40.3018 40.9818L32.1845 33.2207L5.25048 58.9802Z" fill="#FF3333"/>
<path d="M54.1739 26.6519L44.5781 21.3672L35.5554 30.0001L44.5781 38.629L54.1739 33.3483C56.7842 31.9059 56.7842 28.0943 54.1739 26.6519Z" fill="#FFD400"/>
</svg>
