<svg width="24" height="23" viewBox="0 0 24 23" fill="none" xmlns="http://www.w3.org/2000/svg">
<path d="M9.85325 10.8542C9.85325 10.3246 10.3066 9.88542 10.8533 9.88542H12.5199V8.27083C12.5199 7.74125 12.9733 7.30208 13.5199 7.30208C14.0666 7.30208 14.5199 7.74125 14.5199 8.27083V9.88542H16.1866C16.7333 9.88542 17.1866 10.3246 17.1866 10.8542C17.1866 11.3837 16.7333 11.8229 16.1866 11.8229H14.5199V13.4375C14.5199 13.9671 14.0666 14.4062 13.5199 14.4062C12.9733 14.4062 12.5199 13.9671 12.5199 13.4375V11.8229H10.8533C10.3066 11.8229 9.85325 11.3837 9.85325 10.8542ZM10.9999 20.2187C10.9999 21.2908 10.1066 22.1562 8.99992 22.1562C7.89325 22.1562 6.99992 21.2908 6.99992 20.2187C6.99992 19.1467 7.89325 18.2812 8.99992 18.2812C10.1066 18.2812 10.9999 19.1467 10.9999 20.2187ZM19.6666 20.2187C19.6666 21.2908 18.7733 22.1562 17.6666 22.1562C16.5599 22.1562 15.6666 21.2908 15.6666 20.2187C15.6666 19.1467 16.5599 18.2812 17.6666 18.2812C18.7733 18.2812 19.6666 19.1467 19.6666 20.2187ZM23.6399 5.92L20.9733 16.2533C20.9195 16.4639 20.7944 16.6509 20.6179 16.7844C20.4414 16.9179 20.2238 16.9901 19.9999 16.9896H6.66658C6.18658 16.9896 5.77325 16.6537 5.67992 16.1887L3.15992 2.78125H1.33325C0.786585 2.78125 0.333252 2.34208 0.333252 1.8125C0.333252 1.28292 0.786585 0.84375 1.33325 0.84375H3.99992C4.47992 0.84375 4.89325 1.17958 4.98658 1.64458L5.55992 4.71875H22.6666C22.8182 4.71937 22.9677 4.7532 23.1039 4.81772C23.2402 4.88224 23.3595 4.97577 23.4532 5.09131C23.5468 5.20686 23.6122 5.34142 23.6446 5.48493C23.6769 5.62843 23.6753 5.77717 23.6399 5.92ZM21.3866 6.65625H5.91992L7.49325 15.0521H19.2133L21.3733 6.65625H21.3866Z" fill="white"/>
</svg>
